# Blender v2.92.0 OBJ File: '711panic_character.blend'
# www.blender.org
mtllib body_1.mtl
o Body_Sphere.005
v -0.553821 -1.000000 0.832635
v -0.326042 1.000000 0.490183
v -0.705619 -1.000000 0.708590
v -0.415407 1.000000 0.417157
v -0.830300 -1.000000 0.557316
v -0.488809 1.000000 0.328099
v -0.923073 -1.000000 0.384623
v -0.543426 1.000000 0.226433
v -0.980373 -1.000000 0.197150
v -0.577159 1.000000 0.116065
v -0.999997 -1.000000 0.002101
v -0.588712 1.000000 0.001236
v -0.981193 -1.000000 -0.193030
v -0.577641 1.000000 -0.113639
v -0.924681 -1.000000 -0.380742
v -0.544372 1.000000 -0.224148
v -0.832635 -1.000000 -0.553822
v -0.490183 1.000000 -0.326043
v -0.708591 -1.000000 -0.705620
v -0.417157 1.000000 -0.415408
v -0.557316 -1.000000 -0.830301
v -0.328099 1.000000 -0.488810
v -0.384624 -1.000000 -0.923074
v -0.226433 1.000000 -0.543426
v -0.197150 -1.000000 -0.980374
v -0.116065 1.000000 -0.577160
v -0.002101 -1.000000 -0.999998
v -0.001237 1.000000 -0.588713
v 0.193030 -1.000000 -0.981194
v 0.113639 1.000000 -0.577642
v 0.380742 -1.000000 -0.924682
v 0.224148 1.000000 -0.544373
v 0.553823 -1.000000 -0.832636
v 0.326043 1.000000 -0.490184
v 0.705620 -1.000000 -0.708591
v 0.415408 1.000000 -0.417157
v 0.830301 -1.000000 -0.557316
v 0.488810 1.000000 -0.328100
v 0.923074 -1.000000 -0.384624
v 0.543426 1.000000 -0.226433
v 0.980374 -1.000000 -0.197151
v 0.577159 1.000000 -0.116065
v 0.999998 -1.000000 -0.002101
v 0.588713 1.000000 -0.001237
v 0.981193 -1.000000 0.193029
v 0.577642 1.000000 0.113639
v 0.924682 -1.000000 0.380741
v 0.544373 1.000000 0.224147
v 0.832635 -1.000000 0.553822
v 0.490184 1.000000 0.326042
v 0.708591 -1.000000 0.705620
v 0.417157 1.000000 0.415408
v 0.557316 -1.000000 0.830300
v 0.328099 1.000000 0.488809
v 0.384623 -1.000000 0.923073
v 0.226433 1.000000 0.543426
v 0.197150 -1.000000 0.980373
v 0.116065 1.000000 0.577159
v 0.002100 -1.000000 0.999997
v 0.001237 1.000000 0.588712
v -0.193030 -1.000000 0.981192
v -0.113639 1.000000 0.577641
v -0.380742 -1.000000 0.924680
v -0.224148 1.000000 0.544372
vt 0.045752 0.516858
vt 0.622128 0.516858
vt 0.622128 0.545924
vt 0.045752 0.545924
vt 0.622128 0.574990
vt 0.045752 0.574990
vt 0.622128 0.604057
vt 0.045752 0.604057
vt 0.622128 0.633123
vt 0.045752 0.633123
vt 0.622128 0.662189
vt 0.045752 0.662189
vt 0.622128 0.691255
vt 0.045752 0.691255
vt 0.622128 0.720322
vt 0.045752 0.720322
vt 0.622128 0.749388
vt 0.045752 0.749388
vt 0.622128 0.778454
vt 0.045752 0.778454
vt 0.622128 0.807521
vt 0.045752 0.807521
vt 0.622128 0.836587
vt 0.045752 0.836587
vt 0.622128 0.865653
vt 0.045752 0.865653
vt 0.622128 0.894719
vt 0.045752 0.894719
vt 0.622128 0.923786
vt 0.045752 0.923786
vt 0.622128 0.952852
vt 0.045752 0.952852
vt 0.045752 0.022731
vt 0.622128 0.022731
vt 0.622128 0.051798
vt 0.045752 0.051798
vt 0.622128 0.080864
vt 0.045752 0.080864
vt 0.622128 0.109930
vt 0.045752 0.109930
vt 0.622128 0.138997
vt 0.045752 0.138997
vt 0.622128 0.168063
vt 0.045752 0.168063
vt 0.622128 0.197129
vt 0.045752 0.197129
vt 0.622128 0.226195
vt 0.045752 0.226195
vt 0.622128 0.255262
vt 0.045752 0.255262
vt 0.622128 0.284328
vt 0.045752 0.284328
vt 0.622128 0.313394
vt 0.045752 0.313394
vt 0.622128 0.342460
vt 0.045752 0.342460
vt 0.622128 0.371527
vt 0.045752 0.371527
vt 0.622128 0.400593
vt 0.045752 0.400593
vt 0.622128 0.429659
vt 0.045752 0.429659
vt 0.622128 0.458725
vt 0.045752 0.458725
vt 0.923692 0.596458
vt 0.919578 0.617142
vt 0.911507 0.636626
vt 0.899790 0.654162
vt 0.884878 0.669074
vt 0.867342 0.680791
vt 0.847858 0.688862
vt 0.827173 0.692976
vt 0.806084 0.692976
vt 0.785399 0.688862
vt 0.765915 0.680791
vt 0.748379 0.669075
vt 0.733467 0.654162
vt 0.721750 0.636626
vt 0.713679 0.617142
vt 0.709565 0.596458
vt 0.709565 0.575368
vt 0.713679 0.554683
vt 0.721750 0.535199
vt 0.733467 0.517664
vt 0.748380 0.502751
vt 0.765915 0.491034
vt 0.785399 0.482963
vt 0.806084 0.478849
vt 0.827173 0.478849
vt 0.847858 0.482964
vt 0.867342 0.491034
vt 0.884878 0.502751
vt 0.899790 0.517664
vt 0.911507 0.535199
vt 0.919578 0.554684
vt 0.923692 0.575368
vt 0.622128 0.487792
vt 0.045752 0.487792
vt 0.795640 0.397469
vt 0.772783 0.388001
vt 0.752213 0.374256
vt 0.734719 0.356762
vt 0.720974 0.336192
vt 0.711506 0.313335
vt 0.706680 0.289070
vt 0.706680 0.264330
vt 0.711506 0.240065
vt 0.720974 0.217209
vt 0.734719 0.196638
vt 0.752213 0.179144
vt 0.772783 0.165399
vt 0.795640 0.155931
vt 0.819905 0.151105
vt 0.844645 0.151105
vt 0.868909 0.155931
vt 0.891767 0.165399
vt 0.912337 0.179144
vt 0.929831 0.196638
vt 0.943576 0.217208
vt 0.953044 0.240065
vt 0.957870 0.264330
vt 0.957870 0.289070
vt 0.953044 0.313335
vt 0.943576 0.336192
vt 0.929831 0.356762
vt 0.912337 0.374256
vt 0.891767 0.388001
vt 0.868910 0.397469
vt 0.844645 0.402295
vt 0.819905 0.402295
vn -0.5425 0.2014 0.8156
vn -0.6912 0.2014 0.6941
vn -0.8133 0.2014 0.5459
vn -0.9042 0.2014 0.3767
vn -0.9603 0.2014 0.1931
vn -0.9795 0.2014 0.0021
vn -0.9611 0.2014 -0.1891
vn -0.9057 0.2014 -0.3729
vn -0.8156 0.2014 -0.5425
vn -0.6941 0.2014 -0.6912
vn -0.5459 0.2014 -0.8133
vn -0.3767 0.2014 -0.9042
vn -0.1931 0.2014 -0.9603
vn -0.0021 0.2014 -0.9795
vn 0.1891 0.2014 -0.9611
vn 0.3729 0.2014 -0.9057
vn 0.5425 0.2014 -0.8156
vn 0.6912 0.2014 -0.6941
vn 0.8133 0.2014 -0.5459
vn 0.9042 0.2014 -0.3767
vn 0.9603 0.2014 -0.1931
vn 0.9795 0.2014 -0.0021
vn 0.9611 0.2014 0.1891
vn 0.9057 0.2014 0.3729
vn 0.8156 0.2014 0.5425
vn 0.6941 0.2014 0.6912
vn 0.5459 0.2014 0.8133
vn 0.3767 0.2014 0.9042
vn 0.1931 0.2014 0.9603
vn 0.0021 0.2014 0.9795
vn -0.1891 0.2014 0.9611
vn 0.0000 1.0000 -0.0000
vn -0.3729 0.2014 0.9057
vn 0.0000 -1.0000 0.0000
usemtl Body
s 1
f 1/1/1 2/2/1 4/3/2 3/4/2
f 3/4/2 4/3/2 6/5/3 5/6/3
f 5/6/3 6/5/3 8/7/4 7/8/4
f 7/8/4 8/7/4 10/9/5 9/10/5
f 9/10/5 10/9/5 12/11/6 11/12/6
f 11/12/6 12/11/6 14/13/7 13/14/7
f 13/14/7 14/13/7 16/15/8 15/16/8
f 15/16/8 16/15/8 18/17/9 17/18/9
f 17/18/9 18/17/9 20/19/10 19/20/10
f 19/20/10 20/19/10 22/21/11 21/22/11
f 21/22/11 22/21/11 24/23/12 23/24/12
f 23/24/12 24/23/12 26/25/13 25/26/13
f 25/26/13 26/25/13 28/27/14 27/28/14
f 27/28/14 28/27/14 30/29/15 29/30/15
f 29/30/15 30/29/15 32/31/16 31/32/16
f 31/33/16 32/34/16 34/35/17 33/36/17
f 33/36/17 34/35/17 36/37/18 35/38/18
f 35/38/18 36/37/18 38/39/19 37/40/19
f 37/40/19 38/39/19 40/41/20 39/42/20
f 39/42/20 40/41/20 42/43/21 41/44/21
f 41/44/21 42/43/21 44/45/22 43/46/22
f 43/46/22 44/45/22 46/47/23 45/48/23
f 45/48/23 46/47/23 48/49/24 47/50/24
f 47/50/24 48/49/24 50/51/25 49/52/25
f 49/52/25 50/51/25 52/53/26 51/54/26
f 51/54/26 52/53/26 54/55/27 53/56/27
f 53/56/27 54/55/27 56/57/28 55/58/28
f 55/58/28 56/57/28 58/59/29 57/60/29
f 57/60/29 58/59/29 60/61/30 59/62/30
f 59/62/30 60/61/30 62/63/31 61/64/31
f 4/65/32 2/66/32 64/67/32 62/68/32 60/69/32 58/70/32 56/71/32 54/72/32 52/73/32 50/74/32 48/75/32 46/76/32 44/77/32 42/78/32 40/79/32 38/80/32 36/81/32 34/82/32 32/83/32 30/84/32 28/85/32 26/86/32 24/87/32 22/88/32 20/89/32 18/90/32 16/91/32 14/92/32 12/93/32 10/94/32 8/95/32 6/96/32
f 61/64/31 62/63/31 64/97/33 63/98/33
f 63/98/33 64/97/33 2/2/1 1/1/1
f 1/99/34 3/100/34 5/101/34 7/102/34 9/103/34 11/104/34 13/105/34 15/106/34 17/107/34 19/108/34 21/109/34 23/110/34 25/111/34 27/112/34 29/113/34 31/114/34 33/115/34 35/116/34 37/117/34 39/118/34 41/119/34 43/120/34 45/121/34 47/122/34 49/123/34 51/124/34 53/125/34 55/126/34 57/127/34 59/128/34 61/129/34 63/130/34
