# Blender v2.92.0 OBJ File: '711panic_modular.blend'
# www.blender.org
mtllib brokeniceshelf.mtl
o brokenIcecreamShelf_Cube.011
v -1.000000 0.000000 1.000000
v -1.000000 0.000000 -1.000000
v 1.029474 -0.018366 0.995160
v 0.921244 0.111571 -1.000000
v -0.631125 0.710370 0.915495
v -0.631125 0.710370 -0.915495
v 1.000000 0.769436 -1.000000
v 1.108230 0.639500 0.995160
v -0.211921 0.000000 -1.000000
v -0.103691 -0.129936 0.995160
v -0.098404 0.639500 0.910655
v -0.098404 0.639500 -0.920335
v 0.691540 1.268145 -1.000000
v 0.691540 1.268145 1.000000
v 0.142944 1.121707 0.910655
v 0.142944 1.121707 -0.920335
v -0.098404 0.639500 0.995160
v -0.715630 0.710370 1.000000
v -0.715630 0.710370 -1.000000
v -0.206634 0.769436 -1.000000
v 0.125041 1.222204 1.000000
v 0.125041 1.222204 -1.000000
v 0.082872 0.346057 0.910655
v 0.082872 0.346057 -0.920335
v -0.449849 0.416927 0.915495
v -0.449849 0.416927 -0.915495
v 0.324219 1.051165 0.910655
v 0.324219 1.051165 -0.920335
v -1.000000 0.000000 0.008092
v 0.920943 -0.278184 -0.078228
v 0.999699 0.379681 -0.078228
v -0.770483 0.386109 -0.075788
v -0.157368 -0.065494 0.005652
v 0.070187 0.897943 -0.075788
v 0.636686 0.943884 -0.075788
v -0.685978 0.386109 -0.076472
v 0.088090 0.797446 -0.081312
v 0.028018 0.021796 -0.081312
v -0.504703 0.092666 -0.076472
v 0.269366 0.726904 -0.081312
v -1.000000 0.000000 0.200274
v 1.061066 0.647339 0.231706
v -0.146968 -0.077980 0.197370
v 0.121154 1.178086 0.234611
v 0.687653 1.224027 0.234611
v 0.139058 1.077589 0.212847
v 0.320333 1.007047 0.212847
v 0.982310 -0.010527 0.231706
v -0.719516 0.666251 0.234611
v -0.635011 0.666251 0.217687
v 0.078985 0.301939 0.212847
v -0.494075 0.155491 0.115721
vt 0.223510 0.650034
vt 0.375000 0.650034
vt 0.375000 0.750000
vt 0.223510 0.750000
vt 0.375000 0.901490
vt 0.437500 0.874979
vt 0.437500 0.956250
vt 0.375000 1.000000
vt 0.437500 0.650034
vt 0.437500 0.750000
vt 0.375000 0.348510
vt 0.437500 0.375021
vt 0.437500 0.500000
vt 0.375000 0.500000
vt 0.375000 0.123989
vt 0.437500 0.145687
vt 0.437500 0.293750
vt 0.375000 0.250000
vt 0.125000 0.650034
vt 0.125000 0.750000
vt 0.437500 0.396145
vt 0.437500 0.299283
vt 0.437500 0.299283
vt 0.437500 0.396145
vt 0.491177 0.417341
vt 0.491177 0.417341
vt 0.499589 0.750000
vt 0.499589 0.848643
vt 0.499589 0.650034
vt 0.499589 0.401357
vt 0.499589 0.500000
vt 0.499589 0.626810
vt 0.499589 0.626011
vt 0.437500 0.853855
vt 0.437500 0.097454
vt 0.437500 0.000000
vt 0.437500 0.197552
vt 0.491177 0.832659
vt 0.491177 0.666589
vt 0.499589 0.669790
vt 0.437500 0.853855
vt 0.437500 0.097454
vt 0.491177 0.626680
vt 0.491177 0.626680
vt 0.491177 0.832659
vt 0.437500 0.178158
vt 0.437500 0.178158
vt 0.437500 0.197552
vt 0.491177 0.666589
vt 0.437500 0.117460
vt 0.437500 0.626011
vt 0.125000 0.500000
vt 0.223510 0.500000
vt 0.223510 0.626011
vt 0.125000 0.626011
vt 0.375000 0.099966
vt 0.375000 0.626011
vt 0.375000 0.000000
vt 0.437500 0.626852
vt 0.437500 0.670834
vn 0.0795 -0.9959 -0.0427
vn 0.0062 -0.0012 1.0000
vn 0.9910 -0.1186 -0.0624
vn 0.0000 0.0000 -1.0000
vn -0.9032 0.4268 0.0460
vn 0.0000 0.0000 1.0000
vn -0.1181 -0.9926 -0.0291
vn 0.0099 0.0061 0.9999
vn 0.0002 -0.0080 1.0000
vn 0.8355 0.5479 -0.0409
vn -0.0764 0.9423 0.3261
vn 0.1226 0.9906 0.0613
vn -0.1644 0.9290 0.3315
vn 0.0118 0.7908 0.6120
vn -0.8708 0.3815 -0.3102
vn -0.4885 0.2994 0.8196
vn -0.9828 -0.1841 0.0163
vn -0.0099 -0.0061 -0.9999
vn -0.3386 -0.8700 -0.3584
vn 0.9181 0.3815 -0.1073
vn 0.8236 0.5088 0.2505
vn -0.2629 -0.6755 0.6889
vn -0.9640 -0.2243 -0.1425
vn -0.0700 0.7375 -0.6717
vn -0.0605 0.7459 -0.6633
vn 0.8238 0.5199 0.2257
vn -0.0402 -0.9987 -0.0314
vn -0.8928 0.4258 -0.1468
vn 0.9917 -0.1187 -0.0499
vn -0.0531 -0.9722 -0.2281
vn -0.9250 0.3798 -0.0084
vn -0.0807 0.9951 -0.0570
vn -0.0360 0.9976 -0.0600
vn -0.3620 -0.9302 0.0608
vn 0.8417 0.3852 -0.3783
vn -0.9134 -0.2101 0.3487
vn 0.7089 0.4601 -0.5346
vn -0.0844 -0.9960 -0.0301
vn 0.9886 -0.1183 -0.0935
vn -0.0481 -0.8875 0.4583
vn 0.1260 0.9225 0.3648
vn -0.9460 0.3238 -0.0152
vn -0.9442 0.3232 0.0632
vn -0.0078 0.8177 -0.5756
vn -0.0504 0.9789 -0.1981
vn -0.9364 0.3205 -0.1430
usemtl Material.008
s off
f 43/1/1 48/2/1 3/3/1 10/4/1
f 10/5/2 17/6/2 18/7/2 1/8/2
f 48/2/3 42/9/3 8/10/3 3/3/3
f 9/11/4 20/12/4 7/13/4 4/14/4
f 29/15/5 32/16/5 19/17/5 2/18/5
f 2/18/4 19/17/4 20/12/4 9/11/4
f 3/3/6 8/10/6 17/6/6 10/5/6
f 41/19/7 43/1/7 10/4/7 1/20/7
f 12/21/8 6/22/8 26/23/8 24/24/8
f 16/25/6 12/21/6 24/24/6 28/26/6
f 8/10/9 14/27/9 21/28/9 17/6/9
f 42/9/10 45/29/10 14/27/10 8/10/10
f 20/12/4 22/30/4 13/31/4 7/13/4
f 34/32/11 35/33/11 13/31/11 22/30/11
f 11/34/12 5/35/12 18/36/12 17/6/12
f 36/37/13 6/22/13 19/17/13 32/16/13
f 6/22/14 12/21/14 20/12/14 19/17/14
f 15/38/15 11/34/15 17/6/15 21/28/15
f 12/21/16 16/25/16 22/30/16 20/12/16
f 46/39/17 15/38/17 21/28/17 44/40/17
f 5/35/18 11/34/18 23/41/18 25/42/18
f 37/43/19 16/25/19 28/26/19 40/44/19
f 11/34/4 15/38/4 27/45/4 23/41/4
f 50/46/20 5/35/20 25/42/20 52/47/20
f 6/22/21 36/37/21 39/48/21 26/23/21
f 46/39/22 37/43/22 40/44/22 47/49/22
f 16/25/23 37/43/23 34/32/23 22/30/23
f 50/46/24 36/37/24 32/16/24 49/50/24
f 44/40/25 45/29/25 35/33/25 34/32/25
f 7/13/26 13/31/26 35/33/26 31/51/26
f 2/52/27 9/53/27 33/54/27 29/55/27
f 41/56/28 49/50/28 32/16/28 29/15/28
f 4/14/29 7/13/29 31/51/29 30/57/29
f 9/53/30 4/14/30 30/57/30 33/54/30
f 1/58/31 18/36/31 49/50/31 41/56/31
f 21/28/32 14/27/32 45/29/32 44/40/32
f 5/35/33 50/46/33 49/50/33 18/36/33
f 15/38/34 46/39/34 47/49/34 27/45/34
f 36/37/35 50/46/35 52/47/35 39/48/35
f 37/43/36 46/39/36 44/40/36 34/32/36
f 31/51/37 35/33/37 45/29/37 42/9/37
f 29/55/38 33/54/38 43/1/38 41/19/38
f 30/57/39 31/51/39 42/9/39 48/2/39
f 33/54/40 30/57/40 48/2/40 43/1/40
usemtl Material.009
f 38/59/41 24/24/41 26/23/41 39/48/41
f 47/49/42 51/60/42 23/41/42 27/45/42
f 28/26/43 24/24/43 38/59/43 40/44/43
f 51/60/44 38/59/44 39/48/44 52/47/44
f 23/41/45 51/60/45 52/47/45 25/42/45
f 40/44/46 38/59/46 51/60/46 47/49/46
