# Blender v2.92.0 OBJ File: '711panic_character.blend'
# www.blender.org
mtllib hair6.mtl
o hair7_Cube.006
v 0.380745 2.339367 -0.578587
v 0.377464 2.452031 -0.232185
v 0.374182 2.564696 0.114218
v 0.370901 2.677361 0.460620
v 0.367401 2.649836 0.655001
v 0.406519 3.332204 1.099866
v 0.383809 2.234180 -0.901998
v 0.383809 2.691877 -1.312185
v 0.301445 3.464171 -0.682537
v 0.383809 3.324785 -0.283648
v 0.303913 3.508531 0.003607
v 0.339650 3.330932 0.409304
v -0.380745 2.339367 -0.578587
v -0.377464 2.452031 -0.232185
v -0.374182 2.564696 0.114218
v -0.370901 2.677361 0.460620
v -0.367401 2.649836 0.655001
v -0.406519 3.332204 1.099866
v -0.383809 2.234180 -0.901998
v -0.383809 2.691877 -1.312185
v 0.000000 2.234180 -0.917749
v 0.000000 2.691877 -1.327936
v 0.000000 2.649836 0.639249
v 0.000000 3.315361 1.087720
v -0.301445 3.464171 -0.682537
v -0.383809 3.324785 -0.283648
v -0.303913 3.508531 0.003607
v -0.339650 3.330932 0.409304
v 0.000000 3.460420 -0.772686
v 0.000000 3.324785 -0.299399
v 0.000000 3.495422 -0.012064
v 0.000000 3.343380 0.390124
v 0.000000 2.339367 -0.594338
v 0.000000 2.452031 -0.247936
v 0.000000 2.564696 0.098467
v 0.000000 2.677361 0.444869
vt 0.663365 0.653336
vt 0.721964 0.649140
vt 0.721964 0.710571
vt 0.663365 0.718682
vt 0.346430 0.403036
vt 0.653570 0.403036
vt 0.663365 0.461635
vt 0.336635 0.461635
vt 0.336635 0.718682
vt 0.663365 0.788365
vt 0.336635 0.788365
vt 0.663365 0.587990
vt 0.721964 0.587709
vt 0.278036 0.710571
vt 0.278036 0.776079
vt 0.663365 0.522644
vt 0.721964 0.526278
vt 0.721964 0.776079
vt 0.278036 0.468925
vt 0.336635 0.522644
vt 0.278036 0.526278
vt 0.653570 0.846964
vt 0.346430 0.846964
vt 0.721964 0.468925
vt 0.336635 0.587990
vt 0.278036 0.587709
vt 0.336635 0.653336
vt 0.278036 0.649140
vt 0.663365 0.653336
vt 0.663365 0.718682
vt 0.336635 0.461635
vt 0.663365 0.461635
vt 0.336635 0.718682
vt 0.336635 0.788365
vt 0.663365 0.788365
vt 0.663365 0.587990
vt 0.663365 0.522644
vt 0.336635 0.522644
vt 0.336635 0.587990
vt 0.336635 0.653336
vn -0.0214 0.9253 0.3785
vn 0.0305 -0.6671 -0.7444
vn 0.9974 0.0150 -0.0710
vn 0.0077 0.8516 -0.5242
vn 0.0060 -0.9901 -0.1401
vn -0.0523 0.9510 0.3048
vn -0.0067 0.9998 0.0196
vn -0.0127 -0.9509 0.3092
vn -0.0180 -0.5520 0.8337
vn 0.1178 0.6093 -0.7841
vn -0.0128 -0.9509 0.3092
vn -0.0130 -0.9509 0.3092
vn -0.0131 -0.9509 0.3092
vn 0.9976 0.0608 0.0334
vn 0.9941 0.0282 -0.1045
vn 0.9930 0.0447 0.1094
vn 0.9975 0.0596 -0.0379
vn 0.0214 0.9253 0.3785
vn -0.0305 -0.6671 -0.7444
vn -0.9974 0.0150 -0.0710
vn -0.0077 0.8516 -0.5242
vn -0.0060 -0.9901 -0.1401
vn 0.0523 0.9510 0.3048
vn 0.0067 0.9998 0.0196
vn 0.0127 -0.9509 0.3092
vn 0.0180 -0.5520 0.8337
vn -0.1178 0.6093 -0.7841
vn 0.0128 -0.9509 0.3092
vn 0.0130 -0.9509 0.3092
vn 0.0131 -0.9509 0.3092
vn -0.9976 0.0608 0.0334
vn -0.9941 0.0282 -0.1045
vn -0.9930 0.0447 0.1094
vn -0.9975 0.0596 -0.0379
usemtl None
s off
f 11/1/1 31/2/1 32/3/1 12/4/1
f 21/5/2 22/6/2 8/7/2 7/8/2
f 4/9/3 12/4/3 6/10/3 5/11/3
f 10/12/4 30/13/4 31/2/4 11/1/4
f 36/14/5 4/9/5 5/11/5 23/15/5
f 9/16/6 29/17/6 30/13/6 10/12/6
f 12/4/7 32/3/7 24/18/7 6/10/7
f 21/19/8 7/8/8 1/20/8 33/21/8
f 5/11/9 6/10/9 24/22/9 23/23/9
f 8/7/10 22/24/10 29/17/10 9/16/10
f 33/21/11 1/20/11 2/25/11 34/26/11
f 34/26/12 2/25/12 3/27/12 35/28/12
f 35/28/13 3/27/13 4/9/13 36/14/13
f 7/8/14 8/7/14 9/16/14 1/20/14
f 1/20/15 9/16/15 10/12/15 2/25/15
f 2/25/16 10/12/16 11/1/16 3/27/16
f 3/27/17 11/1/17 12/4/17 4/9/17
f 27/29/18 28/30/18 32/3/18 31/2/18
f 21/5/19 19/31/19 20/32/19 22/6/19
f 16/33/20 17/34/20 18/35/20 28/30/20
f 26/36/21 27/29/21 31/2/21 30/13/21
f 36/14/22 23/15/22 17/34/22 16/33/22
f 25/37/23 26/36/23 30/13/23 29/17/23
f 28/30/24 18/35/24 24/18/24 32/3/24
f 21/19/25 33/21/25 13/38/25 19/31/25
f 17/34/26 23/23/26 24/22/26 18/35/26
f 20/32/27 25/37/27 29/17/27 22/24/27
f 33/21/28 34/26/28 14/39/28 13/38/28
f 34/26/29 35/28/29 15/40/29 14/39/29
f 35/28/30 36/14/30 16/33/30 15/40/30
f 19/31/31 13/38/31 25/37/31 20/32/31
f 13/38/32 14/39/32 26/36/32 25/37/32
f 14/39/33 15/40/33 27/29/33 26/36/33
f 15/40/34 16/33/34 28/30/34 27/29/34
