# Blender v2.92.0 OBJ File: '711panic_modular.blend'
# www.blender.org
mtllib icecream_shelf.mtl
o icecream_self_Cube.008
v -1.000000 0.000000 1.000000
v -1.000000 0.000000 -1.000000
v 1.000000 0.000000 1.000000
v 1.000000 0.000000 -1.000000
v -0.906770 1.433227 0.915495
v -0.906770 1.433227 -0.915495
v 1.000000 1.433227 -1.000000
v 1.000000 1.433227 1.000000
v -0.211921 0.000000 -1.000000
v -0.211921 0.000000 1.000000
v -0.206634 1.433227 0.915495
v -0.206634 1.433227 -0.915495
v 1.000000 1.991002 -1.000000
v 1.000000 1.991002 1.000000
v 0.034714 1.915434 0.915495
v 0.034714 1.915434 -0.915495
v -0.206634 1.433227 1.000000
v -0.991275 1.433227 1.000000
v -0.991275 1.433227 -1.000000
v -0.206634 1.433227 -1.000000
v 0.072537 1.991002 1.000000
v 0.072537 1.991002 -1.000000
v -0.025358 1.139784 0.915495
v -0.025358 1.139784 -0.915495
v -0.725495 1.139784 0.915495
v -0.725495 1.139784 -0.915495
v 0.215990 1.844892 0.915495
v 0.215990 1.844892 -0.915495
vt 0.223510 0.500000
vt 0.375000 0.500000
vt 0.375000 0.750000
vt 0.223510 0.750000
vt 0.375000 0.901490
vt 0.437500 0.874979
vt 0.437500 0.956250
vt 0.375000 1.000000
vt 0.437500 0.500000
vt 0.437500 0.750000
vt 0.375000 0.348510
vt 0.437500 0.375021
vt 0.375000 0.000000
vt 0.437500 0.000000
vt 0.437500 0.293750
vt 0.375000 0.250000
vt 0.125000 0.500000
vt 0.125000 0.750000
vt 0.437500 0.396145
vt 0.437500 0.299283
vt 0.437500 0.299283
vt 0.437500 0.396145
vt 0.491177 0.417341
vt 0.491177 0.417341
vt 0.499589 0.750000
vt 0.499589 0.848643
vt 0.499589 0.500000
vt 0.499589 0.401357
vt 0.437500 0.853855
vt 0.437500 0.097454
vt 0.491177 0.832659
vt 0.437500 0.853855
vt 0.437500 0.097454
vt 0.491177 0.832659
vn 0.0000 -1.0000 0.0000
vn 0.0000 0.0000 1.0000
vn 1.0000 0.0000 0.0000
vn 0.0000 0.0000 -1.0000
vn -1.0000 0.0061 0.0000
vn 0.0000 1.0000 0.0000
vn -0.8942 0.4476 -0.0000
vn -0.3627 -0.9319 0.0000
vn 0.8508 0.5256 0.0000
vn -0.9461 0.3238 0.0000
usemtl Material.008
s off
f 9/1/1 4/2/1 3/3/1 10/4/1
f 10/5/2 17/6/2 18/7/2 1/8/2
f 4/2/3 7/9/3 8/10/3 3/3/3
f 9/11/4 20/12/4 7/9/4 4/2/4
f 1/13/5 18/14/5 19/15/5 2/16/5
f 2/16/4 19/15/4 20/12/4 9/11/4
f 3/3/2 8/10/2 17/6/2 10/5/2
f 2/17/1 9/1/1 10/4/1 1/18/1
f 12/19/2 6/20/2 26/21/2 24/22/2
f 16/23/2 12/19/2 24/22/2 28/24/2
f 8/10/2 14/25/2 21/26/2 17/6/2
f 7/9/3 13/27/3 14/25/3 8/10/3
f 20/12/4 22/28/4 13/27/4 7/9/4
f 21/26/6 14/25/6 13/27/6 22/28/6
f 11/29/6 5/30/6 18/14/6 17/6/6
f 5/30/6 6/20/6 19/15/6 18/14/6
f 6/20/6 12/19/6 20/12/6 19/15/6
f 15/31/7 11/29/7 17/6/7 21/26/7
f 12/19/7 16/23/7 22/28/7 20/12/7
f 16/23/7 15/31/7 21/26/7 22/28/7
f 5/30/4 11/29/4 23/32/4 25/33/4
f 15/31/8 16/23/8 28/24/8 27/34/8
f 11/29/4 15/31/4 27/34/4 23/32/4
f 6/20/9 5/30/9 25/33/9 26/21/9
usemtl Material.009
f 23/32/6 24/22/6 26/21/6 25/33/6
f 28/24/10 24/22/10 23/32/10 27/34/10
