# Blender v2.92.0 OBJ File: '711panic_modular.blend'
# www.blender.org
mtllib shelf.mtl
o Shelf_Cube
v -1.000000 0.000000 1.000000
v -1.000000 0.000000 -1.000000
v 1.000000 0.000000 1.000000
v 1.000000 3.995146 1.000000
v 1.000000 0.000000 -1.000000
v 1.000000 3.995146 -1.000000
v -0.991275 0.998787 1.000000
v -0.991275 0.998787 -1.000000
v 1.000000 0.998787 -1.000000
v 1.000000 0.998787 1.000000
v -0.211921 0.000000 -1.000000
v 0.636424 3.995146 -1.000000
v -0.211921 0.000000 1.000000
v 0.636424 3.995146 1.000000
v -0.206634 0.998787 1.000000
v -0.206634 0.998787 -1.000000
v 1.000000 1.991002 -1.000000
v 1.000000 1.991002 1.000000
v 0.072537 1.991002 1.000000
v 0.072537 1.991002 -1.000000
v 1.000000 2.215150 -1.000000
v 1.000000 2.215150 1.000000
v 0.135603 2.215150 1.000000
v 0.135603 2.215150 -1.000000
v -0.662347 2.219492 1.000000
v -0.665251 1.986660 1.000000
v -0.662347 2.219492 -1.000000
v -0.665251 1.986660 -1.000000
v -1.000000 0.000000 0.869971
v 1.000000 0.000000 0.869971
v 1.000000 3.995146 0.869971
v 1.000000 0.998787 0.869971
v -0.991275 0.998787 0.869971
v 0.636424 3.995146 0.869971
v -0.211921 0.000000 0.869971
v -0.206634 0.998787 0.869971
v 0.072537 1.991002 0.869971
v 1.000000 1.991002 0.869971
v 0.135603 2.215150 0.869971
v 1.000000 2.215150 0.869971
v -0.665251 1.986660 0.869971
v -0.662347 2.219492 0.869971
v 1.000000 0.000000 -0.862114
v -0.991275 0.998787 -0.862114
v -0.206634 0.998787 -0.862114
v -1.000000 0.000000 -0.862114
v 1.000000 3.995146 -0.862114
v 1.000000 0.998787 -0.862114
v 0.636424 3.995146 -0.862114
v -0.211921 0.000000 -0.862114
v 0.072537 1.991002 -0.862114
v 1.000000 1.991002 -0.862114
v 0.135603 2.215150 -0.862114
v 1.000000 2.215150 -0.862114
v -0.665251 1.986660 -0.862114
v -0.662347 2.219492 -0.862114
v -1.139995 0.001223 0.869971
v -1.139995 0.001223 1.000000
v -1.089837 1.098213 1.000000
v -0.291166 1.110385 1.000000
v 0.501657 4.033064 0.869971
v 0.501657 4.033064 1.000000
v -0.038813 1.906142 1.000000
v -0.038813 1.906142 0.869971
v 0.051375 2.326978 1.000000
v 0.051375 2.326978 0.869971
v -0.760452 2.319370 1.000000
v -0.764571 1.887991 1.000000
v -0.764571 1.887991 0.869971
v -0.760452 2.319370 0.869971
v -1.089837 1.098213 0.869971
v -0.291166 1.110385 0.869971
v -1.089837 1.098213 -1.000000
v -1.139995 0.001223 -1.000000
v -1.089837 1.098213 -0.862114
v -0.291166 1.110385 -1.000000
v -0.038813 1.906142 -1.000000
v -0.291166 1.110385 -0.862114
v 0.501657 4.033064 -1.000000
v 0.051375 2.326978 -1.000000
v -0.760451 2.319370 -1.000000
v -0.764571 1.887991 -1.000000
v -1.139995 0.001223 -0.862114
v 0.501657 4.033064 -0.862114
v -0.038813 1.906142 -0.862114
v 0.051375 2.326978 -0.862114
v -0.764571 1.887991 -0.862114
v -0.760451 2.319370 -0.862114
vt 0.513615 0.407307
vt 0.625000 0.454553
vt 0.625000 0.500000
vt 0.513615 0.500000
vt 0.513615 0.733746
vt 0.625000 0.733746
vt 0.625000 0.750000
vt 0.513615 0.750000
vt 0.223510 0.733746
vt 0.375000 0.733746
vt 0.375000 0.750000
vt 0.223510 0.750000
vt 0.375000 0.901490
vt 0.437500 0.874979
vt 0.437500 0.956250
vt 0.375000 1.000000
vt 0.437500 0.733746
vt 0.437500 0.750000
vt 0.375000 0.348510
vt 0.437500 0.375021
vt 0.437500 0.500000
vt 0.375000 0.500000
vt 0.375000 0.250000
vt 0.437500 0.293750
vt 0.670447 0.733746
vt 0.670447 0.750000
vt 0.125000 0.733746
vt 0.125000 0.750000
vt 0.625000 0.795447
vt 0.513615 0.842693
vt 0.125000 0.500000
vt 0.125000 0.517236
vt 0.125000 0.517236
vt 0.125000 0.500000
vt 0.499589 0.401357
vt 0.499589 0.401357
vt 0.513615 0.407307
vt 0.499589 0.750000
vt 0.499589 0.848643
vt 0.499589 0.733746
vt 0.499589 0.500000
vt 0.513615 0.842693
vt 0.499589 0.848643
vt 0.499589 0.432194
vt 0.499589 0.819563
vt 0.499589 0.819563
vt 0.499589 0.432194
vt 0.513615 0.437323
vt 0.513615 0.814387
vt 0.499589 0.517236
vt 0.513615 0.517236
vt 0.625000 0.478055
vt 0.513615 0.437323
vt 0.513615 0.814387
vt 0.625000 0.773284
vt 0.437500 0.517236
vt 0.437500 0.409489
vt 0.437500 0.842475
vt 0.125000 0.750000
vt 0.125000 0.733746
vt 0.223510 0.517236
vt 0.625000 0.517236
vt 0.670447 0.517236
vt 0.375000 0.517236
vt 0.223510 0.500000
vt 0.670447 0.500000
vt 0.437500 0.273498
vt 0.437500 0.019098
vt 0.375000 0.016254
vt 0.375000 0.232764
vt 0.499589 0.401357
vt 0.499589 0.432194
vt 0.499589 0.432194
vt 0.499589 0.401357
vt 0.513615 0.407307
vt 0.625000 0.454553
vt 0.437500 0.956250
vt 0.375000 1.000000
vt 0.499589 0.819563
vt 0.513615 0.814387
vt 0.625000 0.795447
vt 0.513615 0.842693
vt 0.513615 0.437323
vt 0.513615 0.437323
vt 0.670447 0.733746
vt 0.670447 0.750000
vt 0.513615 0.814387
vt 0.513615 0.842693
vt 0.499589 0.848643
vt 0.375000 0.250000
vt 0.437500 0.293750
vt 0.513615 0.407307
vt 0.499589 0.819563
vt 0.437500 0.842475
vt 0.437500 0.874979
vt 0.499589 0.848643
vt 0.625000 0.773284
vt 0.437500 0.019098
vt 0.437500 0.000000
vt 0.375000 0.000000
vt 0.375000 0.016254
vt 0.375000 0.232764
vt 0.437500 0.273498
vt 0.437500 0.409489
vt 0.437500 0.375021
vt 0.625000 0.478055
vt 0.670447 0.500000
vt 0.670447 0.517236
vn 0.0000 0.0000 -1.0000
vn 1.0000 0.0000 0.0000
vn 0.0000 -1.0000 0.0000
vn 0.0000 0.0000 1.0000
vn 0.0000 1.0000 0.0000
vn -0.0087 -1.0000 0.0000
vn 0.0059 -1.0000 0.0000
vn -0.9999 0.0125 -0.0000
vn -0.9626 0.2708 0.0000
vn 0.0054 1.0000 0.0000
vn -1.0000 0.0087 0.0000
vn 0.0250 -0.9997 0.0000
vn 0.2708 0.9626 0.0000
vn -0.9532 0.3023 0.0000
vn -0.9669 0.2552 0.0000
vn -1.0000 0.0095 0.0000
vn -0.0094 1.0000 0.0000
vn -0.0152 0.9999 0.0000
vn -0.9990 0.0457 0.0000
usemtl Material.012
s off
f 24/1/1 12/2/1 6/3/1 21/4/1
f 40/5/2 31/6/2 4/7/2 22/8/2
f 35/9/3 30/10/3 3/11/3 13/12/3
f 13/13/4 15/14/4 7/15/4 1/16/4
f 30/10/2 32/17/2 10/18/2 3/11/2
f 11/19/1 16/20/1 9/21/1 5/22/1
f 2/23/1 8/24/1 16/20/1 11/19/1
f 3/11/4 10/18/4 15/14/4 13/13/4
f 31/6/5 34/25/5 14/26/5 4/7/5
f 29/27/3 35/9/3 13/12/3 1/28/3
f 22/8/4 4/7/4 14/29/4 23/30/4
f 2/31/6 46/32/6 83/33/6 74/34/6
f 24/1/1 20/35/1 28/36/1 27/37/1
f 10/18/4 18/38/4 19/39/4 15/14/4
f 32/17/2 38/40/2 18/38/2 10/18/2
f 16/20/1 20/35/1 17/41/1 9/21/1
f 18/38/4 22/8/4 23/30/4 19/39/4
f 38/40/2 40/5/2 22/8/2 18/38/2
f 20/35/1 24/1/1 21/4/1 17/41/1
f 19/39/4 23/30/4 25/42/4 26/43/4
f 51/44/7 37/45/7 41/46/7 55/47/7
f 56/48/8 55/47/8 41/46/8 42/49/8
f 52/50/2 54/51/2 40/5/2 38/40/2
f 49/52/9 53/53/9 39/54/9 34/55/9
f 48/56/2 52/50/2 38/40/2 32/17/2
f 51/44/9 45/57/9 36/58/9 37/45/9
f 29/27/6 1/28/6 58/59/6 57/60/6
f 46/32/3 50/61/3 35/9/3 29/27/3
f 47/62/5 49/63/5 34/25/5 31/6/5
f 43/64/2 48/56/2 32/17/2 30/10/2
f 50/61/3 43/64/3 30/10/3 35/9/3
f 54/51/2 47/62/2 31/6/2 40/5/2
f 21/4/2 6/3/2 47/62/2 54/51/2
f 11/65/3 5/22/3 43/64/3 50/61/3
f 5/22/2 9/21/2 48/56/2 43/64/2
f 6/3/5 12/66/5 49/63/5 47/62/5
f 2/31/3 11/65/3 50/61/3 46/32/3
f 9/21/2 17/41/2 52/50/2 48/56/2
f 17/41/2 21/4/2 54/51/2 52/50/2
f 39/54/10 53/53/10 56/48/10 42/49/10
f 36/58/5 45/57/5 44/67/5 33/68/5
f 29/69/11 33/68/11 44/67/11 46/70/11
f 77/71/12 85/72/12 87/73/12 82/74/12
usemtl Material.013
f 12/2/1 24/1/1 80/75/1 79/76/1
f 1/16/4 7/15/4 59/77/4 58/78/4
f 42/49/1 41/46/1 69/79/1 70/80/1
f 23/30/4 14/29/4 62/81/4 65/82/4
f 56/48/4 53/53/4 86/83/4 88/84/4
f 14/26/13 34/25/13 61/85/13 62/86/13
f 39/54/1 42/49/1 70/80/1 66/87/1
f 26/43/4 25/42/4 67/88/4 68/89/4
f 8/24/1 2/23/1 74/90/1 73/91/1
f 27/37/1 28/36/1 82/74/1 81/92/1
f 51/44/4 55/47/4 87/73/4 85/72/4
f 55/47/4 56/48/4 88/84/4 87/73/4
f 64/93/14 72/94/14 60/95/14 63/96/14
f 61/97/15 66/87/15 65/82/15 62/81/15
f 70/80/16 69/79/16 68/89/16 67/88/16
f 64/93/12 63/96/12 68/89/12 69/79/12
f 65/82/17 66/87/17 70/80/17 67/88/17
f 60/95/18 72/94/18 71/98/18 59/99/18
f 58/100/19 59/99/19 71/98/19 57/101/19
f 33/68/1 29/69/1 57/101/1 71/98/1
f 15/14/4 19/39/4 63/96/4 60/95/4
f 34/55/1 39/54/1 66/87/1 61/97/1
f 7/15/4 15/14/4 60/95/4 59/77/4
f 37/45/1 36/58/1 72/94/1 64/93/1
f 25/42/4 23/30/4 65/82/4 67/88/4
f 36/58/1 33/68/1 71/98/1 72/94/1
f 19/39/4 26/43/4 68/89/4 63/96/4
f 41/46/1 37/45/1 64/93/1 69/79/1
f 83/102/19 75/103/19 73/91/19 74/90/19
f 78/104/18 76/105/18 73/91/18 75/103/18
f 86/83/17 80/75/17 81/92/17 88/84/17
f 77/71/14 76/105/14 78/104/14 85/72/14
f 79/76/15 80/75/15 86/83/15 84/106/15
f 81/92/16 82/74/16 87/73/16 88/84/16
f 44/67/4 45/57/4 78/104/4 75/103/4
f 45/57/4 51/44/4 85/72/4 78/104/4
f 46/70/4 44/67/4 75/103/4 83/102/4
f 28/36/1 20/35/1 77/71/1 82/74/1
f 20/35/1 16/20/1 76/105/1 77/71/1
f 24/1/1 27/37/1 81/92/1 80/75/1
f 49/63/13 12/66/13 79/107/13 84/108/13
f 53/53/4 49/52/4 84/106/4 86/83/4
f 16/20/1 8/24/1 73/91/1 76/105/1
