# Blender v2.92.0 OBJ File: '711panic_modular.blend'
# www.blender.org
mtllib table_checkout.mtl
o checkout_table_middle_Cube.005
v -1.000000 0.000000 1.000000
v -1.000000 2.000000 1.000000
v -1.000000 0.000000 -1.000000
v -1.000000 2.000000 -1.000000
v 1.000000 0.000000 1.000000
v 1.000000 2.000000 1.000000
v 1.000000 0.000000 -1.000000
v 1.000000 2.000000 -1.000000
v -1.000000 1.833333 1.000000
v -1.000000 1.833333 -1.000000
v 1.000000 1.833333 -1.000000
v 1.000000 1.833333 1.000000
v 1.151409 2.000000 -1.000000
v 1.200000 1.951409 -1.000000
v 1.185768 1.985768 -1.000000
v 1.200000 1.951409 1.000000
v 1.151409 2.000000 1.000000
v 1.185768 1.985768 1.000000
v 1.200000 1.881924 -1.000000
v 1.151409 1.833333 -1.000000
v 1.185768 1.847565 -1.000000
v 1.151409 1.833333 1.000000
v 1.200000 1.881924 1.000000
v 1.185768 1.847565 1.000000
v -1.200000 1.881924 1.000000
v -1.151409 1.833333 1.000000
v -1.185768 1.847565 1.000000
v -1.151409 2.000000 1.000000
v -1.200000 1.951409 1.000000
v -1.185768 1.985768 1.000000
v -1.200000 1.951409 -1.000000
v -1.151409 2.000000 -1.000000
v -1.185768 1.985768 -1.000000
v -1.151409 1.833333 -1.000000
v -1.200000 1.881924 -1.000000
v -1.185768 1.847565 -1.000000
vt 0.375000 0.750000
vt 0.604167 0.750000
vt 0.604167 1.000000
vt 0.375000 1.000000
vt 0.375000 0.500000
vt 0.604167 0.500000
vt 0.375000 0.250000
vt 0.604167 0.250000
vt 0.375000 0.000000
vt 0.604167 0.000000
vt 0.875000 0.750000
vt 0.875000 0.500000
vt 0.875000 0.500000
vt 0.875000 0.750000
vt 0.625000 0.250000
vt 0.625000 0.500000
vt 0.625000 0.750000
vt 0.604167 0.750000
vt 0.604760 0.750000
vt 0.610241 0.750000
vt 0.618926 0.750000
vt 0.624407 0.750000
vt 0.625000 0.750000
vt 0.625000 1.000000
vt 0.125000 0.500000
vt 0.125000 0.750000
vt 0.625000 0.500000
vt 0.624407 0.500000
vt 0.618926 0.500000
vt 0.610241 0.500000
vt 0.604760 0.500000
vt 0.604167 0.500000
vt 0.610241 0.000000
vt 0.618926 0.000000
vt 0.618926 0.250000
vt 0.610241 0.250000
vt 0.604167 0.000000
vt 0.604167 0.250000
vt 0.625000 1.000000
vt 0.623221 1.000000
vt 0.618926 1.000000
vt 0.610241 1.000000
vt 0.604760 0.333333
vt 0.604167 1.000000
vt 0.604760 0.250000
vt 0.623221 0.250000
vt 0.625000 0.250000
vt 0.875000 0.500000
vt 0.875000 0.750000
vt 0.625000 0.000000
vt 0.625000 0.250000
vn 0.0000 0.0000 1.0000
vn 1.0000 0.0000 0.0000
vn 0.0000 0.0000 -1.0000
vn -1.0000 0.0000 0.0000
vn 0.0000 1.0000 0.0000
vn 0.0000 -1.0000 0.0000
vn 0.3827 0.9239 0.0000
vn 0.9239 0.3827 0.0000
vn 0.9239 -0.3827 0.0000
vn 0.3827 -0.9239 0.0000
vn -0.3827 0.9239 0.0000
vn -0.9239 0.3827 0.0000
vn -0.9239 -0.3827 0.0000
vn -0.3827 -0.9239 0.0000
usemtl TableBottom
s off
f 5/1/1 12/2/1 9/3/1 1/4/1
f 7/5/2 11/6/2 12/2/2 5/1/2
f 3/7/3 10/8/3 11/6/3 7/5/3
f 1/9/4 9/10/4 10/8/4 3/7/4
usemtl TableTop
f 2/11/5 4/12/5 32/13/5 28/14/5
f 10/8/3 4/15/3 8/16/3 11/6/3
f 6/17/1 12/2/1 22/18/1 24/19/1 23/20/1 16/21/1 18/22/1 17/23/1
f 12/2/1 6/17/1 2/24/1 9/3/1
f 3/25/6 7/5/6 5/1/6 1/26/6
f 8/16/5 4/12/5 2/11/5 6/17/5
f 11/6/3 8/16/3 13/27/3 15/28/3 14/29/3 19/30/3 21/31/3 20/32/3
f 19/30/2 14/29/2 16/21/2 23/20/2
f 25/33/4 29/34/4 31/35/4 35/36/4
f 12/2/6 11/6/6 20/32/6 22/18/6
f 10/8/6 9/10/6 26/37/6 34/38/6
f 9/3/1 2/24/1 28/39/1 30/40/1 29/41/1 25/42/1 27/43/1 26/44/1
f 4/15/3 10/8/3 34/38/3 36/45/3 35/36/3 31/35/3 33/46/3 32/47/3
f 13/27/7 17/23/7 18/22/7 15/28/7
f 15/28/8 18/22/8 16/21/8 14/29/8
f 19/30/9 23/20/9 24/19/9 21/31/9
f 21/31/10 24/19/10 22/18/10 20/32/10
f 28/14/11 32/13/11 33/48/11 30/49/11
f 30/50/12 33/51/12 31/35/12 29/34/12
f 25/33/13 35/36/13 36/45/13 27/43/13
f 27/43/14 36/45/14 34/38/14 26/37/14
f 8/16/5 6/17/5 17/23/5 13/27/5
