# Blender v2.92.0 OBJ File: '711panic_modular.blend'
# www.blender.org
mtllib wall_corner.mtl
o Corner_Cube.003
v -0.000000 0.000000 1.000000
v -0.000000 3.000000 1.000000
v 0.400000 0.000000 1.000000
v 0.400000 3.000000 1.000000
v 0.000000 0.000000 1.400000
v 0.000000 3.000000 1.400000
v 0.400000 0.000000 1.400000
v 0.400000 3.000000 1.400000
vt 0.505460 0.000000
vt 0.505460 1.000000
vt 0.611668 1.000000
vt 0.611668 0.000000
vt 0.398049 0.000000
vt 0.398049 1.000000
vt 0.331109 1.000000
vt 0.331109 0.000000
vt 0.107219 -0.000000
vt 0.107219 1.000000
vt 0.000000 1.000000
vt 0.000000 0.000000
vt 0.761676 0.267675
vt 0.923065 0.256311
vt 0.823065 0.406311
vt 0.786793 0.421463
vt 0.699040 0.339023
vt 0.849039 0.395798
vt 0.849039 0.493054
vt 0.699040 0.393054
vt 0.684375 0.518904
vt 0.834375 0.462129
vt 0.834375 0.516160
vt 0.684375 0.616160
vn 0.0000 0.0000 -1.0000
vn 1.0000 0.0000 0.0000
vn 0.0000 0.0000 1.0000
vn -1.0000 0.0000 0.0000
vn 0.0000 -1.0000 0.0000
vn 0.0000 1.0000 0.0000
usemtl WallMaterial
s off
f 1/1/1 2/2/1 4/3/1 3/4/1
f 3/5/2 4/6/2 8/7/2 7/8/2
f 7/9/3 8/10/3 6/11/3 5/12/3
f 5/13/4 6/14/4 2/15/4 1/16/4
f 3/17/5 7/18/5 5/19/5 1/20/5
f 8/21/6 4/22/6 2/23/6 6/24/6
